<?xml version="1.0" encoding="UTF-8"?>
<svg version="1.1" viewBox="0 0 2048 2048" width="512" height="512" xmlns="http://www.w3.org/2000/svg">
<path transform="translate(939,32)" d="m0 0h42l42 3 37 5 29 6 26 7 27 9 26 11 20 10 17 10 16 11 14 11 10 9 8 7 8 8 18 22 12 19 9 17 8 20 6 19 5 26 2 23v24l-3 30-5 26-3 12v5l20 14 12 9 11 9 13 11 15 14 16 16 7 8 11 13 15 20 10 15 12 20 14 27 11 26 11 33 7 28 5 29 3 29 1 25v20l-1 42-3 49-3 34-4 35-5 36-3 22 7 8 8 9 9 13 9 15 8 19 6 20 3 17 1 14v18l-2 27-4 23-7 26-8 20-8 16-9 15-11 15-12 14-10 10-11 9-13 10-15 9-17 9-8 2-2 9-13 34-13 31-11 24-9 19-10 19-14 25-14 22-8 12-12 17-13 17-9 11-12 14-7 7-7 8-15 15-8 7-6 5-1 3 3 50 5 44 5 29 6 27 8 29 10 28 13 29 12 21 12 17 8 10 9 10 6 7 2 1v2l4 2 10 9 15 11 21 13 23 12 10 7 6 9 3 9v10l-3 9-6 8-7 6-8 3-9 1-11-2-24-12-22-13-16-11-14-11-10-9-8-7-12-12-18-22-13-18-9-15-12-22-12-27-10-27-10-35-6-26-7-39-5-42-1-21-26 14-21 9-25 9-24 7-29 6-30 4-36 2-35-1-21-2-30-5-25-6-36-12-21-9-21-10-10-6-1 17-3 29-6 40-6 28-7 28-8 26-10 26-9 20-10 20-15 24-14 19-11 13-12 13-7 7-8 7-16 13-17 12-24 14-23 12-6 2-9 1-11-2-10-6-6-8-4-10v-12l4-11 7-8 14-8 22-12 19-12 14-11 13-12 12-12 8-10 12-16 14-24 11-23 10-26 9-29 7-30 6-33 5-40 3-41v-19l-13-13-8-7-14-14-7-8-11-12-8-10-11-14-13-18-14-21-10-16-15-26-17-33-13-28-13-31-11-29-6-16-23-11-13-8-11-8-16-13-15-15-11-14-11-16-10-18-8-18-8-25-5-25-3-25v-36l4-24 6-19 8-18 10-17 11-14 11-12 1-4-6-39-6-50-4-45-3-58v-61l3-32 4-26 7-31 8-26 8-21 13-29 11-20 12-19 8-12 9-12 13-16 12-14 27-27 11-9 14-12 19-14 14-9h2l-8-36-4-31v-39l3-24 6-25 7-20 7-16 11-19 9-13 10-13 14-15 10-10 11-9 13-10 20-13 18-10 16-8 24-10 33-11 28-7 39-7 42-4zm-9 64-35 3-36 6-32 8-27 9-21 9-25 13-15 10-13 10-12 11-3 2v2h-2l-7 8-11 14-9 15-8 17-6 18-4 20-1 7v35l5 36 5-1 30-13 27-10 28-9 30-8 39-8 39-6 46-4 24-1h49l36 2 39 4 34 5 37 8 34 9 36 12 28 11 15 7 7 2 5-29 1-12v-24l-3-23-5-19-8-20-9-16-10-14-11-12-13-13-17-13-19-12-23-12-30-12-27-8-27-6-32-5-38-3zm-2 256-31 2-35 4-36 6-38 9-30 9-33 12-27 12-27 14-17 10-11 7-17 12-12 9-13 11-20 18-16 17-9 11-11 14-14 21-11 19-11 22-10 26-8 26-5 23-3 16-3 32v59l3 57 5 53 6 47 1 2 17-4 50-9 34-8 33-11 27-11 29-14 21-12 19-12 18-13 13-10 14-12 10-9 17-16 1-3 3-1 7-8 10-11 11-14 13-17 10-15 14-23 12-23 9-19 1-3-13-22-12-20-18-34-10-22-2-7v-11l4-11 7-8 10-5 4-1h11l10 3 6 5h2l2 4 12 23 8 16 11 21 17 28 14 20 13 19 12 16 14 17 9 11 12 13 7 8 35 35 8 7 15 13 13 11 12 9 19 14 30 20 25 15 27 15 17 8 16 8 36 15 34 12 30 9 32 8 42 9 16 4 4-25 5-44 4-53 2-55v-28l-2-30-5-32-6-25-5-17-8-21-11-24-9-17-12-19-14-19-9-11-12-13-7-8-8-7-9-9-11-9-15-12-20-14-15-9-21-12-19-10-30-13-25-9-25-8-30-8-36-7-35-5-35-3-19-1zm1 361-4 10-14 24-16 24-10 14-11 14-11 13-7 8-11 12-4 4v2h-2v2l-4 2-14 14-11 9-11 10-17 13-18 13-19 12-15 9-22 12-29 14-33 13-28 9-23 6-27 6-41 7-16 5-14 7-16 12-10 10-10 14-7 15-4 13-2 13v27l3 24 5 21 7 19 9 17 10 14 12 14 10 9 14 10 14 8 14 6 14 5 10 9 5 11 10 30 11 28 12 28 13 28 15 29 16 27 11 17 14 20 10 13 14 17 24 26 8 7 12 11 14 11 16 12 21 13 18 10 20 9 15 6 27 8 23 5 31 4 22 1h17l31-2 25-4 26-6 27-9 23-10 25-13 27-18 16-13 10-8 13-12 20-20 7-8 11-13 15-20 14-20 12-19 9-15 7-14 9-16 11-23 14-32 11-28 14-39 5-10 8-7 27-11 16-9 16-12 18-18 10-14 10-18 8-22 5-22 3-27v-19l-3-19-5-15-9-17-7-9-9-10-17-13-16-8-16-5-43-9-35-9-33-10-38-14-35-15-29-14-23-12-21-12-19-12-24-16-17-12-18-14-10-8-11-9-15-13-13-12-12-11-23-23-7-8-12-14-11-12-9-12z" fill="#ff6c8d"/>
<path transform="translate(1818,672)" d="m0 0h11l10 3 9 7 5 8 4 16 5 28 7 27 10 29 13 29 10 19 8 11 12 12 12 9 14 9 16 8 19 7 15 5 9 6 6 9 3 9v10l-4 11-6 8-8 5-30 11-20 9-17 10-11 9-10 10-10 14-8 15-11 27-12 36-8 32-6 31-5 10-8 8-10 4h-17l-10-5-5-4-6-10-4-18-6-30-8-28-9-26-11-25-11-21-11-13-9-9-13-10-13-8-16-8-17-6-16-5-9-6-6-9-3-8v-12l4-11 8-9 10-5 27-9 17-8 16-10 11-9 12-11 9-11 9-16 8-18 6-16 10-34 9-39 5-22 5-10 9-8zm6 155-7 14-9 19-12 19-8 10-12 13-8 7-14 11-10 7 5 5 13 10 13 12 13 13 10 13 8 14 11 22 5 12 3 1 11-25 7-13 10-16 11-13 7-8 12-11 18-13 2-1-2-4-11-8-11-9-7-6-7-8-8-8-10-16-13-24-8-18z" fill="#ff6c8d"/>
<path transform="translate(218,1344)" d="m0 0h11l10 3 9 7 5 8 4 16 5 28 7 27 10 29 13 29 10 19 8 11 11 11 13 10 14 9 16 8 19 7 15 5 6 4 5 5 5 8 2 7v10l-4 11-6 8-6 4-35 12-16 8-16 10-13 11-5 5h-2l-2 4-7 9-13 24-11 25-9 25-8 29-5 26-3 17-5 10-8 8-10 4h-17l-10-5-6-5-6-12-9-44-7-26-10-29-13-30-9-16-12-14-9-9-16-12-18-10-20-8-18-5-10-6-6-8-4-10v-12l4-11 8-9 10-5 27-9 17-8 13-8 13-10 12-11 7-9 8-14 11-22 11-28 8-25 6-26 6-33 5-10 9-8zm5 154-9 20-12 22-9 15-10 11v2h-2l-14 14-17 13-6 4 5 5 12 9 12 11 14 14 13 17 9 16 9 19 4 9 1 2h2l14-29 13-23 7-9 11-12 7-7 11-9 11-8 4-3-2-4-11-8-11-9-7-6-7-8-8-8-10-16-13-24-9-20z" fill="#ff6c8d"/>
<path transform="translate(843,1408)" d="m0 0h10l9 3 11 8 10 6 14 6 20 5 14 2 13 1h33l19-2 23-5 16-6 12-7 9-7 11-4h9l10 3 8 6 6 7 3 7 1 5v8l-3 9-6 9-11 10-15 9-18 8-19 6-17 4-21 3-11 1h-48l-25-3-19-4-19-6-15-6-15-8-13-10-9-10-4-11v-10l4-11 7-9 12-6z" fill="#ff6c8d"/>
<path transform="translate(1080,1088)" d="m0 0h14l10 4 15 11 17 8 11 3 6 1h21l15-3 17-6 17-9 12-7 7-2h42l10 3 9 6 6 9 3 9v10l-4 11-6 8-8 5-6 2-8 1-25 1-8 5-21 10-22 7-20 4-10 1h-23l-20-3-14-4-20-8-14-8-12-9-8-7-5-8-2-5v-16l4-9 5-7 9-6z" fill="#ff6c8d"/>
<path transform="translate(634,1088)" d="m0 0h43l11 4 17 10 19 8 15 4 6 1h22l17-4 16-8 11-8 8-5 6-2h14l10 4 8 7 6 10 1 4v14l-6 12-4 5-13 10-15 9-15 7-15 5-20 4-9 1h-23l-21-3-21-6-17-7-16-8-5-3-7-1h-21l-10-3-9-6-6-9-3-8v-12l4-11 8-9 10-5z" fill="#ff6c8d"/>
</svg>
