<svg xmlns="http://www.w3.org/2000/svg" xmlns:xlink="http://www.w3.org/1999/xlink" width="500" zoomAndPan="magnify" viewBox="0 0 375 374.999991" height="500" preserveAspectRatio="xMidYMid meet" version="1.0"><defs><g/><clipPath id="6c582699b4"><path d="M 143 115 L 250 115 L 250 218.851562 L 143 218.851562 Z M 143 115 " clip-rule="nonzero"/></clipPath><clipPath id="3f18d249db"><path d="M 123.746094 86 L 157 86 L 157 138 L 123.746094 138 Z M 123.746094 86 " clip-rule="nonzero"/></clipPath><clipPath id="c99be2b116"><path d="M 216 65.101562 L 248 65.101562 L 248 107 L 216 107 Z M 216 65.101562 " clip-rule="nonzero"/></clipPath></defs><g fill="#000000" fill-opacity="1"><g transform="translate(117.877293, 255.703562)"><g><path d="M 1.9375 0.09375 C 1.375 0.09375 1 0.046875 0.8125 -0.046875 C 0.632812 -0.140625 0.546875 -0.257812 0.546875 -0.40625 C 0.546875 -0.632812 0.675781 -0.785156 0.9375 -0.859375 C 1.375 -0.929688 1.675781 -1.03125 1.84375 -1.15625 C 2.019531 -1.28125 2.125 -1.453125 2.15625 -1.671875 C 2.195312 -1.898438 2.21875 -2.210938 2.21875 -2.609375 L 2.21875 -13.671875 C 2.21875 -13.941406 2.1875 -14.15625 2.125 -14.3125 C 2.070312 -14.46875 1.898438 -14.539062 1.609375 -14.53125 C 1.273438 -14.507812 0.988281 -14.492188 0.75 -14.484375 C 0.519531 -14.472656 0.398438 -14.554688 0.390625 -14.734375 C 0.367188 -14.910156 0.425781 -15.039062 0.5625 -15.125 C 0.695312 -15.207031 0.859375 -15.28125 1.046875 -15.34375 C 1.554688 -15.5 2.050781 -15.648438 2.53125 -15.796875 C 3.007812 -15.953125 3.367188 -16.03125 3.609375 -16.03125 C 4.015625 -16.03125 4.21875 -15.828125 4.21875 -15.421875 L 4.21875 -2.609375 C 4.21875 -2.210938 4.238281 -1.898438 4.28125 -1.671875 C 4.320312 -1.453125 4.4375 -1.28125 4.625 -1.15625 C 4.8125 -1.03125 5.117188 -0.929688 5.546875 -0.859375 C 5.660156 -0.828125 5.753906 -0.773438 5.828125 -0.703125 C 5.910156 -0.628906 5.953125 -0.53125 5.953125 -0.40625 C 5.953125 -0.257812 5.867188 -0.140625 5.703125 -0.046875 C 5.546875 0.046875 5.1875 0.09375 4.625 0.09375 C 3.738281 0.0625 2.84375 0.0625 1.9375 0.09375 Z M 1.9375 0.09375 "/></g></g></g><g fill="#000000" fill-opacity="1"><g transform="translate(124.210361, 255.703562)"><g><path d="M 1.640625 -11.109375 C 1.472656 -11.109375 1.359375 -11.195312 1.296875 -11.375 C 1.234375 -11.550781 1.300781 -11.6875 1.5 -11.78125 C 1.726562 -11.882812 1.988281 -12.039062 2.28125 -12.25 C 2.570312 -12.457031 2.71875 -12.71875 2.71875 -13.03125 C 2.71875 -13.238281 2.566406 -13.367188 2.265625 -13.421875 C 1.984375 -13.453125 1.734375 -13.578125 1.515625 -13.796875 C 1.296875 -14.015625 1.1875 -14.328125 1.1875 -14.734375 C 1.1875 -15.140625 1.328125 -15.476562 1.609375 -15.75 C 1.898438 -16.03125 2.265625 -16.171875 2.703125 -16.171875 C 3.210938 -16.171875 3.601562 -16 3.875 -15.65625 C 4.15625 -15.3125 4.296875 -14.835938 4.296875 -14.234375 C 4.296875 -13.503906 4.128906 -12.910156 3.796875 -12.453125 C 3.472656 -11.992188 3.101562 -11.65625 2.6875 -11.4375 C 2.269531 -11.21875 1.921875 -11.109375 1.640625 -11.109375 Z M 1.640625 -11.109375 "/></g></g></g><g fill="#000000" fill-opacity="1"><g transform="translate(129.680866, 255.703562)"><g><path d="M 5.875 0.25 C 4.769531 0.25 3.832031 -0.0078125 3.0625 -0.53125 C 2.289062 -1.050781 1.707031 -1.75 1.3125 -2.625 C 0.914062 -3.507812 0.71875 -4.46875 0.71875 -5.5 C 0.71875 -6.601562 0.957031 -7.554688 1.4375 -8.359375 C 1.925781 -9.171875 2.566406 -9.800781 3.359375 -10.25 C 4.160156 -10.707031 5.015625 -10.9375 5.921875 -10.9375 C 6.804688 -10.9375 7.570312 -10.753906 8.21875 -10.390625 C 8.863281 -10.035156 9.363281 -9.578125 9.71875 -9.015625 C 10.082031 -8.453125 10.265625 -7.875 10.265625 -7.28125 C 10.265625 -6.769531 10.128906 -6.425781 9.859375 -6.25 C 9.597656 -6.082031 9.222656 -5.957031 8.734375 -5.875 L 3.296875 -5.0625 C 3.191406 -5.050781 3.109375 -5.019531 3.046875 -4.96875 C 2.984375 -4.925781 2.953125 -4.835938 2.953125 -4.703125 C 2.953125 -4.179688 3.078125 -3.648438 3.328125 -3.109375 C 3.585938 -2.566406 3.976562 -2.101562 4.5 -1.71875 C 5.03125 -1.34375 5.671875 -1.15625 6.421875 -1.15625 C 7.222656 -1.15625 7.898438 -1.332031 8.453125 -1.6875 C 9.003906 -2.039062 9.445312 -2.441406 9.78125 -2.890625 C 9.90625 -3.023438 10.015625 -3.09375 10.109375 -3.09375 C 10.273438 -3.09375 10.382812 -3.03125 10.4375 -2.90625 C 10.488281 -2.78125 10.488281 -2.660156 10.4375 -2.546875 C 10.09375 -1.804688 9.539062 -1.15625 8.78125 -0.59375 C 8.03125 -0.03125 7.0625 0.25 5.875 0.25 Z M 3.21875 -6.078125 L 7.625 -6.765625 C 7.894531 -6.804688 8.085938 -6.875 8.203125 -6.96875 C 8.316406 -7.0625 8.375 -7.207031 8.375 -7.40625 C 8.375 -7.789062 8.265625 -8.175781 8.046875 -8.5625 C 7.835938 -8.957031 7.53125 -9.285156 7.125 -9.546875 C 6.71875 -9.804688 6.226562 -9.9375 5.65625 -9.9375 C 5.1875 -9.9375 4.726562 -9.800781 4.28125 -9.53125 C 3.84375 -9.257812 3.476562 -8.875 3.1875 -8.375 C 2.90625 -7.875 2.765625 -7.289062 2.765625 -6.625 C 2.765625 -6.34375 2.800781 -6.171875 2.875 -6.109375 C 2.957031 -6.054688 3.070312 -6.046875 3.21875 -6.078125 Z M 3.21875 -6.078125 "/></g></g></g><g fill="#000000" fill-opacity="1"><g transform="translate(140.599169, 255.703562)"><g><path d="M 5.921875 0.25 C 4.835938 0.25 3.90625 0 3.125 -0.5 C 2.34375 -1 1.742188 -1.675781 1.328125 -2.53125 C 0.921875 -3.382812 0.71875 -4.328125 0.71875 -5.359375 C 0.71875 -6.453125 0.945312 -7.414062 1.40625 -8.25 C 1.875 -9.09375 2.492188 -9.75 3.265625 -10.21875 C 4.035156 -10.695312 4.898438 -10.9375 5.859375 -10.9375 C 6.566406 -10.9375 7.242188 -10.796875 7.890625 -10.515625 C 8.546875 -10.242188 9.078125 -9.863281 9.484375 -9.375 C 9.898438 -8.894531 10.109375 -8.328125 10.109375 -7.671875 C 10.109375 -7.429688 10.035156 -7.21875 9.890625 -7.03125 C 9.753906 -6.851562 9.5625 -6.765625 9.3125 -6.765625 C 9.007812 -6.765625 8.769531 -6.847656 8.59375 -7.015625 C 8.414062 -7.191406 8.289062 -7.425781 8.21875 -7.71875 C 8.175781 -8.3125 7.972656 -8.828125 7.609375 -9.265625 C 7.242188 -9.710938 6.628906 -9.9375 5.765625 -9.9375 C 5.253906 -9.9375 4.765625 -9.78125 4.296875 -9.46875 C 3.835938 -9.164062 3.46875 -8.722656 3.1875 -8.140625 C 2.90625 -7.554688 2.765625 -6.851562 2.765625 -6.03125 C 2.765625 -5.144531 2.898438 -4.328125 3.171875 -3.578125 C 3.453125 -2.835938 3.867188 -2.25 4.421875 -1.8125 C 4.972656 -1.375 5.65625 -1.15625 6.46875 -1.15625 C 7.207031 -1.15625 7.851562 -1.316406 8.40625 -1.640625 C 8.957031 -1.972656 9.410156 -2.375 9.765625 -2.84375 C 9.867188 -3.007812 9.984375 -3.09375 10.109375 -3.09375 C 10.273438 -3.09375 10.382812 -3.03125 10.4375 -2.90625 C 10.488281 -2.78125 10.488281 -2.660156 10.4375 -2.546875 C 10.09375 -1.753906 9.550781 -1.085938 8.8125 -0.546875 C 8.070312 -0.015625 7.109375 0.25 5.921875 0.25 Z M 5.921875 0.25 "/></g></g></g><g fill="#000000" fill-opacity="1"><g transform="translate(151.789865, 255.703562)"><g><path d="M 1.9375 0.09375 C 1.375 0.09375 1 0.046875 0.8125 -0.046875 C 0.632812 -0.140625 0.546875 -0.257812 0.546875 -0.40625 C 0.546875 -0.632812 0.675781 -0.785156 0.9375 -0.859375 C 1.375 -0.929688 1.675781 -1.03125 1.84375 -1.15625 C 2.019531 -1.28125 2.125 -1.453125 2.15625 -1.671875 C 2.195312 -1.898438 2.21875 -2.210938 2.21875 -2.609375 L 2.21875 -13.671875 C 2.21875 -13.941406 2.1875 -14.15625 2.125 -14.3125 C 2.070312 -14.46875 1.898438 -14.539062 1.609375 -14.53125 C 1.273438 -14.507812 0.988281 -14.492188 0.75 -14.484375 C 0.519531 -14.472656 0.398438 -14.554688 0.390625 -14.734375 C 0.367188 -14.910156 0.425781 -15.039062 0.5625 -15.125 C 0.695312 -15.207031 0.859375 -15.28125 1.046875 -15.34375 C 1.554688 -15.5 2.050781 -15.648438 2.53125 -15.796875 C 3.007812 -15.953125 3.367188 -16.03125 3.609375 -16.03125 C 4.015625 -16.03125 4.21875 -15.828125 4.21875 -15.421875 L 4.21875 -2.609375 C 4.21875 -2.210938 4.238281 -1.898438 4.28125 -1.671875 C 4.320312 -1.453125 4.4375 -1.28125 4.625 -1.15625 C 4.8125 -1.03125 5.117188 -0.929688 5.546875 -0.859375 C 5.660156 -0.828125 5.753906 -0.773438 5.828125 -0.703125 C 5.910156 -0.628906 5.953125 -0.53125 5.953125 -0.40625 C 5.953125 -0.257812 5.867188 -0.140625 5.703125 -0.046875 C 5.546875 0.046875 5.1875 0.09375 4.625 0.09375 C 3.738281 0.0625 2.84375 0.0625 1.9375 0.09375 Z M 1.9375 0.09375 "/></g></g></g><g fill="#000000" fill-opacity="1"><g transform="translate(158.122934, 255.703562)"><g><path d="M 4.296875 0.25 C 3.097656 0.25 2.222656 -0.0390625 1.671875 -0.625 C 1.128906 -1.207031 0.859375 -1.929688 0.859375 -2.796875 C 0.859375 -3.765625 1.265625 -4.554688 2.078125 -5.171875 C 2.890625 -5.796875 4.070312 -6.128906 5.625 -6.171875 C 6.539062 -6.203125 7.117188 -6.265625 7.359375 -6.359375 C 7.597656 -6.453125 7.695312 -6.640625 7.65625 -6.921875 L 7.578125 -7.484375 C 7.472656 -8.296875 7.242188 -8.90625 6.890625 -9.3125 C 6.535156 -9.726562 6.023438 -9.9375 5.359375 -9.9375 C 4.703125 -9.9375 4.160156 -9.753906 3.734375 -9.390625 C 3.316406 -9.035156 3.117188 -8.515625 3.140625 -7.828125 C 3.054688 -7.242188 2.710938 -6.953125 2.109375 -6.953125 C 1.910156 -6.953125 1.726562 -7.019531 1.5625 -7.15625 C 1.394531 -7.300781 1.3125 -7.519531 1.3125 -7.8125 C 1.3125 -8.40625 1.507812 -8.9375 1.90625 -9.40625 C 2.300781 -9.882812 2.832031 -10.265625 3.5 -10.546875 C 4.175781 -10.828125 4.941406 -10.96875 5.796875 -10.96875 C 7.003906 -10.96875 7.90625 -10.648438 8.5 -10.015625 C 9.101562 -9.390625 9.472656 -8.492188 9.609375 -7.328125 L 10.140625 -2.953125 C 10.222656 -2.253906 10.335938 -1.796875 10.484375 -1.578125 C 10.640625 -1.367188 10.816406 -1.265625 11.015625 -1.265625 C 11.210938 -1.265625 11.351562 -1.316406 11.4375 -1.421875 C 11.519531 -1.535156 11.59375 -1.644531 11.65625 -1.75 C 11.726562 -1.851562 11.804688 -1.90625 11.890625 -1.90625 C 12.109375 -1.90625 12.21875 -1.757812 12.21875 -1.46875 C 12.21875 -1.257812 12.140625 -1.023438 11.984375 -0.765625 C 11.835938 -0.515625 11.628906 -0.296875 11.359375 -0.109375 C 11.097656 0.0664062 10.773438 0.15625 10.390625 0.15625 C 9.835938 0.15625 9.421875 -0.00390625 9.140625 -0.328125 C 8.859375 -0.648438 8.65625 -1.09375 8.53125 -1.65625 C 8.476562 -1.789062 8.425781 -1.859375 8.375 -1.859375 C 8.300781 -1.859375 8.195312 -1.75 8.0625 -1.53125 C 7.925781 -1.320312 7.71875 -1.078125 7.4375 -0.796875 C 7.15625 -0.523438 6.765625 -0.28125 6.265625 -0.0625 C 5.765625 0.144531 5.109375 0.25 4.296875 0.25 Z M 5.125 -0.953125 C 5.707031 -0.953125 6.226562 -1.097656 6.6875 -1.390625 C 7.144531 -1.691406 7.492188 -2.09375 7.734375 -2.59375 C 7.984375 -3.101562 8.066406 -3.660156 7.984375 -4.265625 L 7.953125 -4.71875 C 7.921875 -4.9375 7.851562 -5.085938 7.75 -5.171875 C 7.65625 -5.265625 7.484375 -5.316406 7.234375 -5.328125 C 6.984375 -5.347656 6.597656 -5.359375 6.078125 -5.359375 C 4.929688 -5.359375 4.113281 -5.144531 3.625 -4.71875 C 3.144531 -4.300781 2.90625 -3.785156 2.90625 -3.171875 C 2.90625 -2.484375 3.085938 -1.941406 3.453125 -1.546875 C 3.816406 -1.148438 4.375 -0.953125 5.125 -0.953125 Z M 5.125 -0.953125 "/></g></g></g><g fill="#000000" fill-opacity="1"><g transform="translate(170.357789, 255.703562)"><g><path d="M 5.0625 0.234375 C 4.101562 0.234375 3.332031 -0.0351562 2.75 -0.578125 C 2.175781 -1.128906 1.890625 -2.050781 1.890625 -3.34375 L 1.890625 -9.28125 C 1.890625 -9.445312 1.847656 -9.5625 1.765625 -9.625 C 1.679688 -9.6875 1.5625 -9.71875 1.40625 -9.71875 L 1.09375 -9.71875 C 0.957031 -9.71875 0.851562 -9.765625 0.78125 -9.859375 C 0.71875 -9.960938 0.6875 -10.066406 0.6875 -10.171875 C 0.6875 -10.367188 0.78125 -10.632812 0.96875 -10.96875 L 1.203125 -11.3125 C 1.367188 -11.65625 1.5625 -11.992188 1.78125 -12.328125 C 2 -12.671875 2.207031 -12.941406 2.40625 -13.140625 C 2.769531 -13.472656 3.148438 -13.640625 3.546875 -13.640625 C 3.816406 -13.640625 3.953125 -13.441406 3.953125 -13.046875 L 3.953125 -11.484375 C 3.953125 -11.148438 3.96875 -10.9375 4 -10.84375 C 4.03125 -10.757812 4.113281 -10.71875 4.25 -10.71875 L 7.40625 -10.71875 C 7.550781 -10.71875 7.65625 -10.691406 7.71875 -10.640625 C 7.78125 -10.597656 7.8125 -10.488281 7.8125 -10.3125 C 7.8125 -9.914062 7.609375 -9.71875 7.203125 -9.71875 L 4.40625 -9.71875 C 4.269531 -9.71875 4.144531 -9.691406 4.03125 -9.640625 C 3.925781 -9.585938 3.875 -9.460938 3.875 -9.265625 L 3.875 -3.65625 C 3.875 -2.8125 4.050781 -2.191406 4.40625 -1.796875 C 4.769531 -1.398438 5.238281 -1.203125 5.8125 -1.203125 C 6.125 -1.203125 6.476562 -1.300781 6.875 -1.5 C 7.28125 -1.707031 7.640625 -2.046875 7.953125 -2.515625 C 8.117188 -2.742188 8.285156 -2.804688 8.453125 -2.703125 C 8.617188 -2.597656 8.660156 -2.445312 8.578125 -2.25 C 8.242188 -1.394531 7.785156 -0.765625 7.203125 -0.359375 C 6.617188 0.0351562 5.90625 0.234375 5.0625 0.234375 Z M 5.0625 0.234375 "/></g></g></g><g fill="#000000" fill-opacity="1"><g transform="translate(179.233162, 255.703562)"><g/></g></g><g fill="#000000" fill-opacity="1"><g transform="translate(185.815918, 255.703562)"><g><path d="M 1.5625 0.015625 C 1.257812 0.015625 1.039062 -0.015625 0.90625 -0.078125 C 0.78125 -0.148438 0.71875 -0.285156 0.71875 -0.484375 C 0.71875 -0.617188 0.765625 -0.726562 0.859375 -0.8125 C 0.960938 -0.90625 1.082031 -0.984375 1.21875 -1.046875 C 1.675781 -1.140625 2.007812 -1.238281 2.21875 -1.34375 C 2.4375 -1.445312 2.570312 -1.59375 2.625 -1.78125 C 2.6875 -1.96875 2.71875 -2.242188 2.71875 -2.609375 L 2.71875 -13.265625 C 2.71875 -13.648438 2.679688 -13.941406 2.609375 -14.140625 C 2.546875 -14.335938 2.410156 -14.484375 2.203125 -14.578125 C 1.992188 -14.671875 1.660156 -14.757812 1.203125 -14.84375 C 0.878906 -14.96875 0.71875 -15.160156 0.71875 -15.421875 C 0.71875 -15.609375 0.773438 -15.738281 0.890625 -15.8125 C 1.003906 -15.882812 1.222656 -15.921875 1.546875 -15.921875 C 1.828125 -15.921875 2.226562 -15.921875 2.75 -15.921875 C 3.28125 -15.921875 3.847656 -15.921875 4.453125 -15.921875 C 5.054688 -15.929688 5.632812 -15.9375 6.1875 -15.9375 C 6.738281 -15.945312 7.1875 -15.953125 7.53125 -15.953125 C 9.289062 -15.953125 10.570312 -15.613281 11.375 -14.9375 C 12.1875 -14.269531 12.59375 -13.445312 12.59375 -12.46875 C 12.59375 -11.769531 12.484375 -11.203125 12.265625 -10.765625 C 12.046875 -10.328125 11.78125 -9.984375 11.46875 -9.734375 C 11.164062 -9.484375 10.878906 -9.296875 10.609375 -9.171875 C 10.492188 -9.109375 10.441406 -9.046875 10.453125 -8.984375 C 10.460938 -8.929688 10.519531 -8.890625 10.625 -8.859375 C 11.082031 -8.734375 11.566406 -8.507812 12.078125 -8.1875 C 12.585938 -7.863281 13.019531 -7.414062 13.375 -6.84375 C 13.738281 -6.28125 13.921875 -5.554688 13.921875 -4.671875 C 13.921875 -3.265625 13.394531 -2.125 12.34375 -1.25 C 11.289062 -0.375 9.695312 0.0625 7.5625 0.0625 C 6.925781 0.0625 6.210938 0.0546875 5.421875 0.046875 C 4.640625 0.046875 3.898438 0.0390625 3.203125 0.03125 C 2.503906 0.0195312 1.957031 0.015625 1.5625 0.015625 Z M 5.5 -9.28125 L 7.328125 -9.28125 C 8.253906 -9.28125 9.007812 -9.535156 9.59375 -10.046875 C 10.175781 -10.566406 10.46875 -11.289062 10.46875 -12.21875 C 10.46875 -13.09375 10.179688 -13.769531 9.609375 -14.25 C 9.046875 -14.738281 8.300781 -14.984375 7.375 -14.984375 L 5.515625 -14.984375 C 5.203125 -14.984375 4.988281 -14.914062 4.875 -14.78125 C 4.757812 -14.644531 4.703125 -14.398438 4.703125 -14.046875 L 4.703125 -10.078125 C 4.703125 -9.796875 4.75 -9.59375 4.84375 -9.46875 C 4.945312 -9.34375 5.164062 -9.28125 5.5 -9.28125 Z M 5.8125 -1.0625 L 7.375 -1.0625 C 8.175781 -1.0625 8.894531 -1.203125 9.53125 -1.484375 C 10.164062 -1.765625 10.671875 -2.1875 11.046875 -2.75 C 11.429688 -3.3125 11.625 -4.003906 11.625 -4.828125 C 11.625 -5.984375 11.253906 -6.851562 10.515625 -7.4375 C 9.785156 -8.019531 8.816406 -8.3125 7.609375 -8.3125 L 5.703125 -8.3125 C 5.316406 -8.3125 5.050781 -8.253906 4.90625 -8.140625 C 4.769531 -8.023438 4.703125 -7.835938 4.703125 -7.578125 L 4.703125 -2.40625 C 4.703125 -1.96875 4.785156 -1.632812 4.953125 -1.40625 C 5.128906 -1.175781 5.414062 -1.0625 5.8125 -1.0625 Z M 5.8125 -1.0625 "/></g></g></g><g fill="#000000" fill-opacity="1"><g transform="translate(200.388789, 255.703562)"><g><path d="M 5.875 0.25 C 4.769531 0.25 3.832031 -0.0078125 3.0625 -0.53125 C 2.289062 -1.050781 1.707031 -1.75 1.3125 -2.625 C 0.914062 -3.507812 0.71875 -4.46875 0.71875 -5.5 C 0.71875 -6.601562 0.957031 -7.554688 1.4375 -8.359375 C 1.925781 -9.171875 2.566406 -9.800781 3.359375 -10.25 C 4.160156 -10.707031 5.015625 -10.9375 5.921875 -10.9375 C 6.804688 -10.9375 7.570312 -10.753906 8.21875 -10.390625 C 8.863281 -10.035156 9.363281 -9.578125 9.71875 -9.015625 C 10.082031 -8.453125 10.265625 -7.875 10.265625 -7.28125 C 10.265625 -6.769531 10.128906 -6.425781 9.859375 -6.25 C 9.597656 -6.082031 9.222656 -5.957031 8.734375 -5.875 L 3.296875 -5.0625 C 3.191406 -5.050781 3.109375 -5.019531 3.046875 -4.96875 C 2.984375 -4.925781 2.953125 -4.835938 2.953125 -4.703125 C 2.953125 -4.179688 3.078125 -3.648438 3.328125 -3.109375 C 3.585938 -2.566406 3.976562 -2.101562 4.5 -1.71875 C 5.03125 -1.34375 5.671875 -1.15625 6.421875 -1.15625 C 7.222656 -1.15625 7.898438 -1.332031 8.453125 -1.6875 C 9.003906 -2.039062 9.445312 -2.441406 9.78125 -2.890625 C 9.90625 -3.023438 10.015625 -3.09375 10.109375 -3.09375 C 10.273438 -3.09375 10.382812 -3.03125 10.4375 -2.90625 C 10.488281 -2.78125 10.488281 -2.660156 10.4375 -2.546875 C 10.09375 -1.804688 9.539062 -1.15625 8.78125 -0.59375 C 8.03125 -0.03125 7.0625 0.25 5.875 0.25 Z M 3.21875 -6.078125 L 7.625 -6.765625 C 7.894531 -6.804688 8.085938 -6.875 8.203125 -6.96875 C 8.316406 -7.0625 8.375 -7.207031 8.375 -7.40625 C 8.375 -7.789062 8.265625 -8.175781 8.046875 -8.5625 C 7.835938 -8.957031 7.53125 -9.285156 7.125 -9.546875 C 6.71875 -9.804688 6.226562 -9.9375 5.65625 -9.9375 C 5.1875 -9.9375 4.726562 -9.800781 4.28125 -9.53125 C 3.84375 -9.257812 3.476562 -8.875 3.1875 -8.375 C 2.90625 -7.875 2.765625 -7.289062 2.765625 -6.625 C 2.765625 -6.34375 2.800781 -6.171875 2.875 -6.109375 C 2.957031 -6.054688 3.070312 -6.046875 3.21875 -6.078125 Z M 3.21875 -6.078125 "/></g></g></g><g fill="#000000" fill-opacity="1"><g transform="translate(211.307092, 255.703562)"><g><path d="M 4.296875 0.25 C 3.097656 0.25 2.222656 -0.0390625 1.671875 -0.625 C 1.128906 -1.207031 0.859375 -1.929688 0.859375 -2.796875 C 0.859375 -3.765625 1.265625 -4.554688 2.078125 -5.171875 C 2.890625 -5.796875 4.070312 -6.128906 5.625 -6.171875 C 6.539062 -6.203125 7.117188 -6.265625 7.359375 -6.359375 C 7.597656 -6.453125 7.695312 -6.640625 7.65625 -6.921875 L 7.578125 -7.484375 C 7.472656 -8.296875 7.242188 -8.90625 6.890625 -9.3125 C 6.535156 -9.726562 6.023438 -9.9375 5.359375 -9.9375 C 4.703125 -9.9375 4.160156 -9.753906 3.734375 -9.390625 C 3.316406 -9.035156 3.117188 -8.515625 3.140625 -7.828125 C 3.054688 -7.242188 2.710938 -6.953125 2.109375 -6.953125 C 1.910156 -6.953125 1.726562 -7.019531 1.5625 -7.15625 C 1.394531 -7.300781 1.3125 -7.519531 1.3125 -7.8125 C 1.3125 -8.40625 1.507812 -8.9375 1.90625 -9.40625 C 2.300781 -9.882812 2.832031 -10.265625 3.5 -10.546875 C 4.175781 -10.828125 4.941406 -10.96875 5.796875 -10.96875 C 7.003906 -10.96875 7.90625 -10.648438 8.5 -10.015625 C 9.101562 -9.390625 9.472656 -8.492188 9.609375 -7.328125 L 10.140625 -2.953125 C 10.222656 -2.253906 10.335938 -1.796875 10.484375 -1.578125 C 10.640625 -1.367188 10.816406 -1.265625 11.015625 -1.265625 C 11.210938 -1.265625 11.351562 -1.316406 11.4375 -1.421875 C 11.519531 -1.535156 11.59375 -1.644531 11.65625 -1.75 C 11.726562 -1.851562 11.804688 -1.90625 11.890625 -1.90625 C 12.109375 -1.90625 12.21875 -1.757812 12.21875 -1.46875 C 12.21875 -1.257812 12.140625 -1.023438 11.984375 -0.765625 C 11.835938 -0.515625 11.628906 -0.296875 11.359375 -0.109375 C 11.097656 0.0664062 10.773438 0.15625 10.390625 0.15625 C 9.835938 0.15625 9.421875 -0.00390625 9.140625 -0.328125 C 8.859375 -0.648438 8.65625 -1.09375 8.53125 -1.65625 C 8.476562 -1.789062 8.425781 -1.859375 8.375 -1.859375 C 8.300781 -1.859375 8.195312 -1.75 8.0625 -1.53125 C 7.925781 -1.320312 7.71875 -1.078125 7.4375 -0.796875 C 7.15625 -0.523438 6.765625 -0.28125 6.265625 -0.0625 C 5.765625 0.144531 5.109375 0.25 4.296875 0.25 Z M 5.125 -0.953125 C 5.707031 -0.953125 6.226562 -1.097656 6.6875 -1.390625 C 7.144531 -1.691406 7.492188 -2.09375 7.734375 -2.59375 C 7.984375 -3.101562 8.066406 -3.660156 7.984375 -4.265625 L 7.953125 -4.71875 C 7.921875 -4.9375 7.851562 -5.085938 7.75 -5.171875 C 7.65625 -5.265625 7.484375 -5.316406 7.234375 -5.328125 C 6.984375 -5.347656 6.597656 -5.359375 6.078125 -5.359375 C 4.929688 -5.359375 4.113281 -5.144531 3.625 -4.71875 C 3.144531 -4.300781 2.90625 -3.785156 2.90625 -3.171875 C 2.90625 -2.484375 3.085938 -1.941406 3.453125 -1.546875 C 3.816406 -1.148438 4.375 -0.953125 5.125 -0.953125 Z M 5.125 -0.953125 "/></g></g></g><g fill="#000000" fill-opacity="1"><g transform="translate(223.541947, 255.703562)"><g><path d="M 5.546875 0.234375 C 4.492188 0.234375 3.625 -0.101562 2.9375 -0.78125 C 2.25 -1.457031 1.90625 -2.550781 1.90625 -4.0625 L 1.90625 -8.46875 C 1.90625 -8.757812 1.875 -8.984375 1.8125 -9.140625 C 1.75 -9.296875 1.578125 -9.367188 1.296875 -9.359375 C 0.960938 -9.335938 0.675781 -9.316406 0.4375 -9.296875 C 0.207031 -9.285156 0.078125 -9.375 0.046875 -9.5625 C 0.046875 -9.738281 0.113281 -9.867188 0.25 -9.953125 C 0.382812 -10.035156 0.539062 -10.109375 0.71875 -10.171875 C 1.238281 -10.316406 1.734375 -10.46875 2.203125 -10.625 C 2.679688 -10.78125 3.046875 -10.859375 3.296875 -10.859375 C 3.703125 -10.859375 3.90625 -10.648438 3.90625 -10.234375 L 3.90625 -4.40625 C 3.90625 -3.300781 4.125 -2.492188 4.5625 -1.984375 C 5 -1.472656 5.613281 -1.21875 6.40625 -1.21875 C 6.851562 -1.21875 7.300781 -1.347656 7.75 -1.609375 C 8.195312 -1.867188 8.5625 -2.273438 8.84375 -2.828125 C 9.132812 -3.390625 9.28125 -4.113281 9.28125 -5 L 9.28125 -8.46875 C 9.28125 -8.757812 9.25 -8.984375 9.1875 -9.140625 C 9.132812 -9.296875 8.960938 -9.367188 8.671875 -9.359375 C 8.335938 -9.335938 8.050781 -9.316406 7.8125 -9.296875 C 7.582031 -9.285156 7.453125 -9.375 7.421875 -9.5625 C 7.421875 -9.738281 7.488281 -9.867188 7.625 -9.953125 C 7.757812 -10.035156 7.921875 -10.109375 8.109375 -10.171875 C 8.617188 -10.316406 9.113281 -10.46875 9.59375 -10.625 C 10.070312 -10.78125 10.429688 -10.859375 10.671875 -10.859375 C 11.078125 -10.859375 11.28125 -10.648438 11.28125 -10.234375 L 11.28125 -2.21875 C 11.28125 -1.945312 11.3125 -1.734375 11.375 -1.578125 C 11.4375 -1.421875 11.609375 -1.347656 11.890625 -1.359375 C 12.242188 -1.390625 12.535156 -1.410156 12.765625 -1.421875 C 13.003906 -1.429688 13.128906 -1.34375 13.140625 -1.15625 C 13.140625 -0.976562 13.070312 -0.847656 12.9375 -0.765625 C 12.800781 -0.679688 12.644531 -0.609375 12.46875 -0.546875 C 11.945312 -0.390625 11.453125 -0.234375 10.984375 -0.078125 C 10.515625 0.0664062 10.15625 0.140625 9.90625 0.140625 C 9.488281 0.140625 9.28125 -0.0664062 9.28125 -0.484375 L 9.28125 -1.75 C 9.28125 -1.894531 9.269531 -1.988281 9.25 -2.03125 C 9.226562 -2.082031 9.203125 -2.109375 9.171875 -2.109375 C 9.128906 -2.109375 9.054688 -1.988281 8.953125 -1.75 C 8.859375 -1.519531 8.6875 -1.25 8.4375 -0.9375 C 8.1875 -0.632812 7.828125 -0.363281 7.359375 -0.125 C 6.898438 0.113281 6.296875 0.234375 5.546875 0.234375 Z M 5.546875 0.234375 "/></g></g></g><g fill="#000000" fill-opacity="1"><g transform="translate(236.934463, 255.703562)"><g><path d="M 5.0625 0.234375 C 4.101562 0.234375 3.332031 -0.0351562 2.75 -0.578125 C 2.175781 -1.128906 1.890625 -2.050781 1.890625 -3.34375 L 1.890625 -9.28125 C 1.890625 -9.445312 1.847656 -9.5625 1.765625 -9.625 C 1.679688 -9.6875 1.5625 -9.71875 1.40625 -9.71875 L 1.09375 -9.71875 C 0.957031 -9.71875 0.851562 -9.765625 0.78125 -9.859375 C 0.71875 -9.960938 0.6875 -10.066406 0.6875 -10.171875 C 0.6875 -10.367188 0.78125 -10.632812 0.96875 -10.96875 L 1.203125 -11.3125 C 1.367188 -11.65625 1.5625 -11.992188 1.78125 -12.328125 C 2 -12.671875 2.207031 -12.941406 2.40625 -13.140625 C 2.769531 -13.472656 3.148438 -13.640625 3.546875 -13.640625 C 3.816406 -13.640625 3.953125 -13.441406 3.953125 -13.046875 L 3.953125 -11.484375 C 3.953125 -11.148438 3.96875 -10.9375 4 -10.84375 C 4.03125 -10.757812 4.113281 -10.71875 4.25 -10.71875 L 7.40625 -10.71875 C 7.550781 -10.71875 7.65625 -10.691406 7.71875 -10.640625 C 7.78125 -10.597656 7.8125 -10.488281 7.8125 -10.3125 C 7.8125 -9.914062 7.609375 -9.71875 7.203125 -9.71875 L 4.40625 -9.71875 C 4.269531 -9.71875 4.144531 -9.691406 4.03125 -9.640625 C 3.925781 -9.585938 3.875 -9.460938 3.875 -9.265625 L 3.875 -3.65625 C 3.875 -2.8125 4.050781 -2.191406 4.40625 -1.796875 C 4.769531 -1.398438 5.238281 -1.203125 5.8125 -1.203125 C 6.125 -1.203125 6.476562 -1.300781 6.875 -1.5 C 7.28125 -1.707031 7.640625 -2.046875 7.953125 -2.515625 C 8.117188 -2.742188 8.285156 -2.804688 8.453125 -2.703125 C 8.617188 -2.597656 8.660156 -2.445312 8.578125 -2.25 C 8.242188 -1.394531 7.785156 -0.765625 7.203125 -0.359375 C 6.617188 0.0351562 5.90625 0.234375 5.0625 0.234375 Z M 5.0625 0.234375 "/></g></g></g><g fill="#000000" fill-opacity="1"><g transform="translate(245.809836, 255.703562)"><g><path d="M 1.609375 4.15625 C 0.960938 4.15625 0.445312 3.988281 0.0625 3.65625 C -0.320312 3.320312 -0.515625 2.890625 -0.515625 2.359375 C -0.515625 2.054688 -0.425781 1.800781 -0.25 1.59375 C -0.0703125 1.394531 0.15625 1.296875 0.4375 1.296875 C 0.914062 1.296875 1.207031 1.546875 1.3125 2.046875 C 1.34375 2.328125 1.425781 2.578125 1.5625 2.796875 C 1.695312 3.023438 1.875 3.140625 2.09375 3.140625 C 2.34375 3.140625 2.628906 3.015625 2.953125 2.765625 C 3.285156 2.523438 3.617188 2.226562 3.953125 1.875 C 4.296875 1.519531 4.597656 1.179688 4.859375 0.859375 C 4.953125 0.742188 4.988281 0.617188 4.96875 0.484375 C 4.957031 0.359375 4.890625 0.128906 4.765625 -0.203125 C 4.253906 -1.628906 3.757812 -3.078125 3.28125 -4.546875 C 2.800781 -6.023438 2.320312 -7.382812 1.84375 -8.625 C 1.6875 -9.03125 1.53125 -9.304688 1.375 -9.453125 C 1.21875 -9.597656 0.945312 -9.691406 0.5625 -9.734375 C 0.226562 -9.816406 0.0625 -9.992188 0.0625 -10.265625 C 0.0625 -10.460938 0.140625 -10.59375 0.296875 -10.65625 C 0.460938 -10.726562 0.726562 -10.765625 1.09375 -10.765625 C 1.59375 -10.765625 2.015625 -10.757812 2.359375 -10.75 C 2.710938 -10.738281 3.066406 -10.738281 3.421875 -10.75 C 3.773438 -10.757812 4.203125 -10.765625 4.703125 -10.765625 C 5.140625 -10.765625 5.414062 -10.722656 5.53125 -10.640625 C 5.65625 -10.554688 5.71875 -10.429688 5.71875 -10.265625 C 5.71875 -10.128906 5.679688 -10.023438 5.609375 -9.953125 C 5.535156 -9.890625 5.441406 -9.84375 5.328125 -9.8125 C 4.640625 -9.71875 4.210938 -9.582031 4.046875 -9.40625 C 3.878906 -9.238281 3.863281 -8.976562 4 -8.625 C 4.394531 -7.613281 4.785156 -6.5 5.171875 -5.28125 C 5.554688 -4.070312 5.9375 -2.945312 6.3125 -1.90625 C 6.375 -1.769531 6.445312 -1.707031 6.53125 -1.71875 C 6.613281 -1.738281 6.675781 -1.796875 6.71875 -1.890625 C 7.113281 -2.472656 7.492188 -3.066406 7.859375 -3.671875 C 8.234375 -4.285156 8.546875 -4.878906 8.796875 -5.453125 C 9.046875 -6.023438 9.175781 -6.566406 9.1875 -7.078125 C 9.269531 -7.703125 9.226562 -8.148438 9.0625 -8.421875 C 8.894531 -8.691406 8.664062 -8.90625 8.375 -9.0625 C 8 -9.34375 7.8125 -9.691406 7.8125 -10.109375 C 7.8125 -10.222656 7.835938 -10.335938 7.890625 -10.453125 C 7.953125 -10.578125 8.039062 -10.679688 8.15625 -10.765625 C 8.320312 -10.878906 8.539062 -10.9375 8.8125 -10.9375 C 8.957031 -10.9375 9.097656 -10.910156 9.234375 -10.859375 C 9.367188 -10.804688 9.492188 -10.742188 9.609375 -10.671875 C 9.828125 -10.484375 9.992188 -10.28125 10.109375 -10.0625 C 10.421875 -9.507812 10.578125 -8.816406 10.578125 -7.984375 C 10.578125 -7.378906 10.425781 -6.671875 10.125 -5.859375 C 9.832031 -5.054688 9.367188 -4.101562 8.734375 -3 C 8.484375 -2.5625 8.191406 -2.085938 7.859375 -1.578125 C 7.523438 -1.066406 7.160156 -0.546875 6.765625 -0.015625 C 6.222656 0.703125 5.648438 1.378906 5.046875 2.015625 C 4.453125 2.648438 3.863281 3.164062 3.28125 3.5625 C 2.695312 3.957031 2.140625 4.15625 1.609375 4.15625 Z M 1.609375 4.15625 "/></g></g></g><path fill="#43977e" d="M 224.480469 90.195312 C 221.75 84 222.699219 75.378906 227.332031 69.179688 C 229.816406 75.007812 228.589844 84.796875 224.480469 90.195312 Z M 141.214844 90.839844 C 139.4375 98.355469 141.984375 106.640625 146.921875 111.242188 C 148.546875 104.675781 145.816406 95.195312 141.214844 90.839844 Z M 134.375 121.152344 C 138.945312 127.378906 146.921875 130.785156 153.640625 129.984375 C 149.683594 124.496094 140.695312 120.445312 134.375 121.152344 Z M 242.886719 95.535156 C 235.277344 94.183594 227.148438 97.191406 222.851562 102.40625 C 229.511719 103.695312 238.804688 100.410156 242.886719 95.535156 Z M 242.886719 95.535156 " fill-opacity="1" fill-rule="nonzero"/><path fill="#db978b" d="M 180.699219 148.824219 C 195.609375 145.816406 208.679688 148.085938 209.84375 153.886719 C 211.011719 159.683594 199.875 166.832031 184.933594 169.839844 C 169.992188 172.84375 156.953125 170.574219 155.789062 164.777344 C 154.621094 158.976562 165.757812 151.859375 180.699219 148.824219 Z M 170.605469 114.953125 L 198.339844 110.6875 C 199.507812 110.503906 200.304688 109.429688 200.121094 108.265625 L 197.449219 90.871094 C 197.296875 89.828125 196.40625 89.058594 195.363281 89.058594 C 195.242188 89.058594 195.148438 89.058594 195.027344 89.089844 L 167.292969 93.355469 C 166.527344 93.476562 166.097656 93.9375 165.914062 94.214844 C 165.726562 94.492188 165.421875 95.042969 165.511719 95.808594 L 168.183594 113.203125 C 168.335938 114.246094 169.226562 115.015625 170.269531 115.015625 C 170.390625 114.953125 170.515625 114.953125 170.605469 114.953125 Z M 170.605469 114.953125 " fill-opacity="1" fill-rule="nonzero"/><g clip-path="url(#6c582699b4)"><path fill="#000000" d="M 243.992188 128.605469 C 244.511719 128.023438 245.035156 127.46875 245.492188 126.949219 C 248.5625 123.636719 251.199219 120.75 248.5 118.019531 C 248.007812 117.53125 247.304688 117.285156 246.414062 117.316406 C 241.105469 117.53125 228.160156 128.574219 225.246094 132.042969 C 223.957031 133.546875 219.785156 136.335938 214.816406 139.21875 C 216.042969 137.347656 217.359375 135.417969 218.679688 133.515625 C 224.234375 125.476562 227.546875 120.414062 226.65625 117.59375 C 226.410156 116.824219 225.859375 116.242188 225.0625 115.933594 C 221.105469 114.402344 213.957031 122.316406 205.734375 131.980469 C 203.953125 134.066406 202.449219 135.875 201.53125 136.765625 C 200.394531 137.871094 197.417969 139.28125 193.675781 140.722656 C 196.621094 137.347656 198.832031 133.453125 198.371094 130.722656 C 198.15625 129.527344 197.480469 128.667969 196.375 128.238281 C 193.1875 126.949219 188.800781 130.691406 184.136719 134.648438 C 182.480469 136.0625 180.914062 137.378906 179.472656 138.390625 C 177.664062 139.679688 174.839844 140.9375 171.558594 142.351562 C 165.726562 144.894531 158.488281 148.054688 152.90625 153.394531 C 145.847656 160.144531 145.601562 170.605469 145.417969 177.539062 C 145.355469 179.410156 145.328125 181.003906 145.171875 182.292969 C 144.835938 185.148438 144.589844 191.835938 144.3125 198.921875 C 144.039062 206.59375 143.667969 216.101562 143.242188 217.328125 C 143.054688 217.789062 143.300781 218.3125 143.792969 218.496094 C 143.882812 218.527344 144.007812 218.558594 144.097656 218.558594 C 144.46875 218.558594 144.835938 218.3125 144.957031 217.941406 C 145.449219 216.5625 145.757812 209.875 146.15625 198.984375 C 146.398438 192.265625 146.675781 185.300781 147.015625 182.507812 C 147.167969 181.128906 147.230469 179.503906 147.257812 177.601562 C 147.414062 170.574219 147.660156 160.972656 154.164062 154.746094 C 159.5 149.621094 166.585938 146.554688 172.292969 144.066406 C 175.667969 142.59375 178.582031 141.335938 180.546875 139.925781 C 182.050781 138.851562 183.644531 137.503906 185.300781 136.089844 C 188.953125 132.992188 193.523438 129.097656 195.703125 129.984375 C 196.222656 130.199219 196.5 130.539062 196.589844 131.089844 C 196.960938 133.269531 194.472656 138.023438 189.65625 142.289062 C 185.269531 143.851562 180.453125 145.386719 176.527344 146.644531 C 173.273438 147.6875 170.453125 148.578125 168.886719 149.191406 C 168.429688 149.375 168.183594 149.898438 168.367188 150.355469 C 168.488281 150.726562 168.859375 150.941406 169.226562 150.941406 C 169.316406 150.941406 169.441406 150.910156 169.53125 150.878906 C 171.066406 150.296875 173.859375 149.40625 177.109375 148.363281 C 181.222656 147.042969 185.976562 145.539062 190.332031 143.976562 C 190.425781 143.945312 190.484375 143.945312 190.578125 143.882812 C 196.253906 141.859375 201.164062 139.804688 202.878906 138.117188 C 203.863281 137.164062 205.335938 135.417969 207.207031 133.207031 C 210.089844 129.800781 213.710938 125.539062 217.054688 122.285156 C 222.054688 117.46875 223.894531 117.4375 224.480469 117.652344 C 224.847656 117.777344 224.9375 117.992188 225 118.144531 C 225.675781 120.320312 221.195312 126.796875 217.238281 132.5 C 215.214844 135.417969 213.15625 138.421875 211.5 141.152344 C 205.367188 144.589844 198.738281 147.839844 195.027344 149.128906 C 194.566406 149.285156 194.289062 149.804688 194.472656 150.296875 C 194.597656 150.664062 194.964844 150.910156 195.332031 150.910156 C 195.425781 150.910156 195.546875 150.878906 195.640625 150.847656 C 199.230469 149.589844 205.824219 146.398438 212.484375 142.6875 C 212.574219 142.65625 212.636719 142.625 212.699219 142.566406 C 216.195312 140.632812 224.449219 135.847656 226.6875 133.207031 C 229.847656 129.464844 242.304688 119.308594 246.535156 119.125 C 246.78125 119.125 247.089844 119.125 247.273438 119.308594 C 248.652344 120.691406 247.582031 122.070312 244.234375 125.722656 C 243.164062 126.886719 241.933594 128.207031 240.769531 129.679688 C 240.738281 129.742188 240.707031 129.769531 240.675781 129.832031 C 239.632812 130.355469 238.5 131 237.210938 131.828125 C 233.804688 134.003906 230.398438 136.675781 228.46875 138.238281 C 228.46875 138.207031 228.4375 138.175781 228.4375 138.175781 C 228.066406 137.378906 227.363281 136.859375 226.351562 136.613281 C 222.914062 135.816406 219.234375 141.367188 214.96875 147.8125 C 212.328125 151.800781 209.597656 155.910156 207.328125 157.628906 C 202.511719 161.308594 195.886719 161.1875 188.859375 161.0625 C 178.214844 160.878906 166.128906 160.632812 158.273438 174.285156 C 158.027344 174.714844 158.179688 175.269531 158.609375 175.515625 C 159.039062 175.757812 159.59375 175.605469 159.835938 175.175781 C 167.171875 162.445312 178.183594 162.660156 188.828125 162.84375 C 196.160156 162.964844 203.125 163.121094 208.433594 159.039062 C 210.949219 157.105469 213.617188 153.058594 216.472656 148.761719 C 219.691406 143.882812 223.710938 137.808594 225.953125 138.332031 C 226.625 138.484375 226.75 138.761719 226.808594 138.851562 C 226.902344 139.066406 226.933594 139.375 226.902344 139.742188 C 226.871094 139.804688 226.871094 139.863281 226.871094 139.957031 C 226.535156 141.980469 224.449219 145.785156 222.085938 150.082031 C 220.335938 153.273438 218.3125 156.890625 216.257812 161.09375 C 209.597656 174.5625 192.941406 180.945312 183 184.777344 C 182.019531 185.148438 181.097656 185.515625 180.269531 185.820312 C 172.355469 188.953125 173.980469 200.703125 175.269531 210.152344 C 175.636719 212.910156 176.003906 215.519531 176.097656 217.636719 C 176.128906 218.128906 176.527344 218.496094 177.019531 218.496094 C 177.019531 218.496094 177.050781 218.496094 177.050781 218.496094 C 177.539062 218.464844 177.9375 218.066406 177.90625 217.542969 C 177.816406 215.335938 177.449219 212.695312 177.078125 209.875 C 175.882812 201.070312 174.378906 190.085938 180.945312 187.480469 C 181.773438 187.140625 182.695312 186.804688 183.644531 186.4375 C 193.800781 182.539062 210.734375 176.035156 217.761719 162.078125 C 221.5625 159.375 228.835938 152.964844 234.785156 147.074219 C 240.339844 141.550781 247.027344 134.28125 247.335938 130.90625 C 247.425781 129.984375 247.058594 129.464844 246.78125 129.15625 C 246.046875 128.605469 245.15625 128.421875 243.992188 128.605469 Z M 245.402344 130.816406 C 245.21875 132.960938 240.707031 138.605469 233.375 145.847656 C 228.3125 150.878906 223.160156 155.449219 219.539062 158.363281 C 220.949219 155.664062 222.300781 153.210938 223.527344 150.96875 C 226.136719 146.246094 228.007812 142.871094 228.46875 140.507812 C 229.941406 139.28125 234.019531 135.9375 238.101562 133.332031 C 244.207031 129.433594 245.308594 130.414062 245.339844 130.476562 C 245.371094 130.539062 245.402344 130.628906 245.402344 130.816406 Z M 245.402344 130.816406 " fill-opacity="1" fill-rule="nonzero"/></g><g clip-path="url(#3f18d249db)"><path fill="#000000" d="M 155.113281 136.277344 C 155.175781 136.734375 155.542969 137.105469 156.003906 137.105469 C 156.035156 137.105469 156.0625 137.105469 156.09375 137.105469 C 156.585938 137.042969 156.953125 136.613281 156.921875 136.121094 C 156.800781 134.742188 156.585938 133.453125 156.308594 132.195312 C 155.175781 124.863281 155.328125 119.679688 156.707031 117.960938 C 157.015625 117.5625 156.953125 117.007812 156.554688 116.671875 C 156.15625 116.363281 155.605469 116.425781 155.265625 116.824219 C 154.164062 118.207031 153.640625 120.8125 153.703125 124.554688 C 150.265625 117.347656 144.773438 112.46875 140.082031 108.328125 C 136.277344 104.953125 132.964844 102.039062 132.011719 98.785156 C 134.558594 97.957031 136.398438 95.59375 136.398438 92.773438 C 136.398438 89.273438 133.578125 86.453125 130.078125 86.453125 C 126.582031 86.453125 123.789062 89.273438 123.789062 92.773438 C 123.789062 96.238281 126.613281 99.09375 130.109375 99.09375 C 130.140625 99.09375 130.203125 99.09375 130.234375 99.09375 C 131.121094 102.375 133.851562 105.136719 137.164062 108.144531 C 134.835938 108.082031 131.429688 107.589844 129.617188 105.535156 C 129.28125 105.167969 128.699219 105.136719 128.332031 105.472656 C 127.960938 105.8125 127.929688 106.394531 128.269531 106.761719 C 130.722656 109.523438 135.140625 109.984375 137.808594 109.984375 C 138.363281 109.984375 138.824219 109.953125 139.191406 109.953125 C 145.757812 115.71875 153.761719 122.992188 155.113281 136.277344 Z M 125.601562 92.773438 C 125.601562 90.289062 127.625 88.261719 130.109375 88.261719 C 132.59375 88.261719 134.589844 90.289062 134.589844 92.773438 C 134.589844 95.257812 132.5625 97.28125 130.078125 97.28125 C 127.59375 97.28125 125.601562 95.226562 125.601562 92.773438 Z M 125.601562 92.773438 " fill-opacity="1" fill-rule="nonzero"/></g><g clip-path="url(#c99be2b116)"><path fill="#000000" d="M 217.023438 106.484375 C 217.054688 106.484375 217.054688 106.484375 217.085938 106.484375 C 217.546875 106.484375 217.914062 106.148438 217.976562 105.6875 C 218.433594 102.34375 222.667969 98.664062 227.148438 94.796875 C 229.570312 92.710938 232.117188 90.472656 234.417969 88.078125 C 234.449219 88.046875 234.511719 88.015625 234.542969 87.957031 C 234.632812 87.863281 234.726562 87.742188 234.816406 87.648438 C 237.761719 84.488281 240.15625 80.992188 241.167969 77.003906 C 244.421875 76.972656 247.089844 74.335938 247.089844 71.050781 C 247.089844 67.769531 244.421875 65.101562 241.136719 65.101562 C 237.855469 65.101562 235.1875 67.769531 235.1875 71.050781 C 235.1875 73.71875 236.933594 75.960938 239.359375 76.726562 C 238.773438 78.9375 237.703125 80.992188 236.320312 82.953125 C 236.351562 82.679688 236.351562 82.402344 236.351562 82.125 C 236.382812 80.132812 236.042969 78.351562 235.800781 77.707031 C 235.617188 77.25 235.09375 77.003906 234.632812 77.15625 C 234.171875 77.339844 233.929688 77.863281 234.082031 78.324219 C 234.449219 79.335938 235.09375 84.242188 233.4375 86.421875 C 231.136719 88.90625 228.46875 91.207031 225.980469 93.386719 C 222.761719 96.179688 219.816406 98.722656 218.003906 101.269531 L 218.003906 95.132812 C 218.003906 94.644531 217.605469 94.214844 217.085938 94.214844 C 216.5625 94.214844 216.164062 94.613281 216.164062 95.132812 L 216.164062 105.566406 C 216.164062 106.054688 216.53125 106.457031 217.023438 106.484375 Z M 236.996094 71.113281 C 236.996094 68.84375 238.835938 67 241.105469 67 C 243.378906 67 245.21875 68.84375 245.21875 71.113281 C 245.21875 73.382812 243.378906 75.222656 241.105469 75.222656 C 238.835938 75.222656 236.996094 73.382812 236.996094 71.113281 Z M 236.996094 71.113281 " fill-opacity="1" fill-rule="nonzero"/></g><path fill="#000000" d="M 162.167969 114.09375 C 162.507812 116.273438 163.671875 118.175781 165.421875 119.464844 C 166.832031 120.507812 168.519531 121.058594 170.269531 121.058594 C 170.699219 121.058594 171.097656 121.027344 171.527344 120.964844 L 199.261719 116.703125 C 201.4375 116.363281 203.339844 115.199219 204.628906 113.449219 C 205.917969 111.671875 206.46875 109.492188 206.132812 107.34375 L 203.464844 89.949219 C 202.910156 86.453125 200.242188 83.785156 196.960938 83.140625 L 195.703125 74.886719 C 195.640625 74.394531 195.148438 74.058594 194.660156 74.121094 L 163.152344 78.9375 C 162.90625 78.964844 162.691406 79.089844 162.566406 79.304688 C 162.445312 79.519531 162.351562 79.734375 162.414062 79.980469 L 163.671875 88.230469 C 162.628906 88.816406 161.710938 89.582031 161.003906 90.5625 C 159.714844 92.34375 159.164062 94.519531 159.5 96.667969 Z M 164.316406 80.59375 L 194.046875 76.023438 L 195.117188 82.953125 C 194.78125 82.953125 194.445312 82.984375 194.105469 83.046875 L 166.371094 87.3125 C 166.035156 87.371094 165.699219 87.433594 165.390625 87.527344 Z M 165.699219 89.304688 L 195.332031 84.765625 C 198.433594 84.765625 201.164062 87.035156 201.652344 90.195312 L 204.324219 107.589844 C 204.566406 109.277344 204.167969 110.964844 203.15625 112.34375 C 202.144531 113.726562 200.640625 114.617188 198.953125 114.890625 L 171.21875 119.15625 C 169.53125 119.402344 167.84375 119.003906 166.464844 117.992188 C 165.082031 116.976562 164.195312 115.476562 163.917969 113.789062 L 161.25 96.390625 C 160.789062 93.234375 162.722656 90.257812 165.699219 89.304688 Z M 165.699219 89.304688 " fill-opacity="1" fill-rule="nonzero"/></svg>