<?xml version="1.0" encoding="UTF-8"?>
<svg version="1.1" viewBox="0 0 2048 2048" width="512" height="512" xmlns="http://www.w3.org/2000/svg">
<path transform="translate(799,191)" d="m0 0h448l12 2 8 4 7 7 4 6 2 7v78l-4 10-8 9-8 4-23 5-6 3-8 7-4 8-1 5v13l4 10 6 7 10 5 13 2 13 4 10 9 5 10 1 3v206l-4 10-9 10-10 4-5 1h-99v75l37 8 33 9 37 12 31 12 23 10 25 12 29 15 20 12 24 15 23 16 17 13 9 7 22 18 11 10 8 7 7 7 8 7 17 17v2h2l7 8 12 13 9 11 11 13 10 13 14 19 22 33 15 25 13 24 9 17 15 33 11 28 12 34 10 35 8 34 6 33 4 29 3 31 1 18v66l-2 30-4 35-6 37-8 36-8 30-12 37-15 38-16 35-15 29-10 17-16 26-11 16-13 18-12 16-11 13-8 10-11 12-7 8-11 12-16 16-10 6-8 2h-949l-10-3-10-8-11-11v-2h-2l-7-8-9-9-7-8-12-14-13-16-15-20-12-17-12-18-13-21-13-23-14-27-13-28-15-38-12-36-10-37-8-37-6-38-4-39-2-43v-25l1-27 3-36 6-42 7-36 9-35 10-33 12-33 11-26 12-26 12-24 14-24 12-20 10-15 13-19 16-21 11-14 11-13 7-8 2-3h2l2-4 7-8 32-32 8-7 14-13 11-9 17-14 19-14 14-10 18-12 24-15 27-15 19-10 19-9 23-10 28-11 36-12 24-7 34-8 16-3h3v-76h-101l-11-4-9-8-5-9-2-13v-384l2-9 4-8 3-4h2v-2l8-5 5-2zm34 65-1 11v308l380 1 3-1v-133l-16-8-13-9-12-12-7-10-8-15-5-17-2-14v-10l2-14 4-14 5-12 8-12 8-10 10-9 14-9 12-6 1-4-3-1zm128 384-1 10v56l2 1 28-2 37-1 47 2 13 1v-67zm51 128-27 1-35 3-35 5-26 5-36 9-30 9-38 14-29 13-23 11-22 12-22 13-23 15-17 12-16 12-16 13-15 13-10 9-4 3v2l-4 2-22 22v2h-2l-7 8-12 13-9 11-13 16-14 19-9 13-10 15-7 11-8 14 2 1 37-17 29-11 28-9 31-8 31-6 31-4 34-2h18l35 2 32 4 31 6 30 8 36 12 20 8 29 13 31 16 27 16 22 14 18 13 17 12 32 24 16 11 18 12 13 8 22 13 29 15 26 12 26 10 18 6 26 7 24 5 29 4 12 1h45l29-3 31-6 26-7 23-8 24-10 27-13 21-12 24-15 17-12 16-12 6-4-1-7-10-24-12-26-14-27-16-27-9-14-16-24-9-11-8-11-11-13-9-11-15-16-9-10-17-17-8-7-14-13-11-9-17-14-19-14-30-20-28-17-27-14-16-8-22-10-28-11-36-12-25-7-30-7-33-6-33-4-29-2-28-1zm-542 321m228 7-24 1-28 3-28 5-31 8-36 12-29 12-35 17-23 13-28 17-10 7-5 5-11 34-10 38-8 40-4 29-3 37-1 23v22l2 38 3 32 6 38 7 33 9 33 12 36 15 37 13 27 8 16 14 25 15 24 14 20 12 16 14 18 13 15 11 12 12 13 3 3h913l8-7 9-10 5-5v-2h2l9-11 11-13 10-13 12-16 13-19 14-22 14-25 10-19 11-23 13-31 12-34 10-34 9-40 5-30 4-36 2-29v-56l-3-38-5-37-8-41-4-17-4 1-19 13-20 13-22 13-24 13-21 10-27 11-33 11-28 7-21 4-29 4-26 2h-31l-35-3-32-5-30-7-24-7-29-10-26-11-30-14-26-14-22-13-19-12-19-13-18-13-36-27-20-14-22-14-22-13-24-13-32-15-35-13-27-8-26-6-30-5-24-2z" fill="#ff6c8d" stroke="#ff6c8d"/>
<path transform="translate(1627,127)" d="m0 0h9l11 4 10 9 6 12 1 4v12l-5 11-7 7-14 8-23 11-224 112-9 3h-13l-9-4-8-7-7-14-1-3v-11l4-11 6-7 10-6 152-76 19-10 21-10 16-8 19-10 16-8 13-6z" fill="#ff6c8d" stroke="#ff6c8d"/>
<path transform="translate(1371,511)" d="m0 0h9l12 4 252 126 10 7 6 7 4 11v11l-5 12-9 10-8 4-5 1h-11l-12-4-17-9-56-28-19-9-19-10-144-72-10-9-4-8-1-3v-12l4-11 4-6 5-5 8-5z" fill="#ff6c8d" stroke="#ff6c8d"/>
<path transform="translate(1375,383)" d="m0 0h254l11 1 12 6 8 9 3 6 1 4v15l-6 12-9 8-13 4h-266l-11-4-9-8-6-12-1-8 2-11 4-8 5-6 14-7z" fill="#ff6c8d" stroke="#ff6c8d"/>
</svg>
